<?xml version="1.0" standalone="no"?>
<!DOCTYPE svg PUBLIC "-//W3C//DTD SVG 20010904//EN"
 "http://www.w3.org/TR/2001/REC-SVG-20010904/DTD/svg10.dtd">
<svg version="1.0" xmlns="http://www.w3.org/2000/svg"
 width="260.000000pt" height="260.000000pt" viewBox="0 0 260.000000 260.000000"
 preserveAspectRatio="xMidYMid meet">
<metadata>
Created by potrace 1.14, written by Peter Selinger 2001-2017
</metadata>
<g transform="translate(0.000000,260.000000) scale(0.100000,-0.100000)"
fill="#000000" stroke="none">
<path d="M1758 2577 c-9 -7 -26 -19 -39 -27 -12 -8 -37 -29 -56 -47 -18 -17
-33 -28 -33 -25 -1 4 -9 -10 -19 -31 -9 -20 -20 -34 -24 -30 -4 3 -7 -6 -7
-21 0 -16 -4 -25 -10 -21 -6 3 -10 -4 -10 -17 0 -13 -5 -29 -11 -35 -17 -17
-16 -248 1 -268 7 -8 10 -22 6 -30 -5 -14 -9 -13 -27 4 -36 33 -154 86 -304
136 -158 53 -200 59 -400 59 -134 0 -182 -3 -225 -17 -30 -10 -55 -17 -55 -16
0 1 -17 -4 -38 -11 -39 -15 -49 -30 -19 -30 32 0 190 -64 203 -83 3 -5 9 -9
12 -8 4 0 46 -18 94 -41 111 -51 195 -79 283 -93 37 -6 171 -6 200 -1 14 3 39
8 55 12 17 3 65 17 107 30 43 14 81 25 85 25 5 0 16 8 26 16 9 9 17 12 17 8 0
-5 36 28 80 73 44 45 80 89 80 97 0 8 5 15 10 15 6 0 10 7 10 15 0 8 5 15 10
15 6 0 10 14 10 31 0 17 4 28 10 24 6 -4 10 13 10 44 0 34 4 51 13 51 7 0 8 3
2 8 -15 11 -17 32 -2 32 8 0 7 4 -3 10 -13 9 -13 11 0 20 11 7 11 10 2 10 -10
0 -10 5 -1 21 8 15 8 19 0 15 -6 -4 -11 -2 -11 3 0 6 5 11 10 11 12 0 9 22 -5
32 -6 5 -5 8 3 8 6 0 12 9 12 20 0 23 -26 26 -52 7z"/>
<path d="M2217 1945 c-1 -2 -47 -5 -102 -9 -123 -8 -127 -8 -350 -58 -361 -80
-455 -112 -455 -157 0 -6 -4 -11 -10 -11 -5 0 -10 -8 -10 -18 0 -10 -4 -22 -9
-28 -5 -5 -11 -22 -13 -39 -1 -16 -6 -32 -9 -35 -4 -3 -8 -23 -10 -45 -1 -22
-6 -44 -9 -50 -9 -12 -9 -46 0 -40 3 2 6 -5 6 -15 0 -10 -4 -16 -8 -14 -10 6
-6 -26 5 -43 5 -8 3 -13 -4 -13 -8 0 -7 -5 2 -17 12 -15 12 -16 -1 -8 -12 7
-13 6 -4 -6 6 -8 12 -39 13 -69 1 -30 5 -57 9 -60 4 -3 9 -23 11 -45 1 -22 7
-41 12 -43 5 -2 9 -19 9 -37 0 -21 6 -35 16 -39 23 -9 24 -8 24 14 0 11 5 20
10 20 6 0 10 7 10 15 0 8 5 15 10 15 6 0 10 5 10 10 0 6 9 19 20 30 11 11 20
27 20 35 0 8 5 15 10 15 6 0 10 7 10 15 0 8 11 25 25 39 14 14 25 32 25 41 0
9 5 13 10 10 6 -3 10 3 10 15 0 12 5 18 10 15 6 -3 10 3 10 15 0 12 5 18 10
15 6 -3 10 4 10 16 0 12 3 19 7 16 3 -4 11 0 17 9 6 8 53 24 106 35 52 11 102
22 110 24 20 4 452 93 482 99 61 11 125 30 143 43 11 7 15 13 10 13 -6 0 -3 4
5 10 19 12 21 120 2 120 -8 0 -57 -9 -110 -20 -54 -10 -108 -21 -122 -23 -87
-16 -122 -23 -157 -31 -10 -2 -65 -13 -123 -25 -58 -11 -112 -22 -120 -25 -8
-3 -35 -8 -60 -11 -25 -4 -55 -8 -68 -10 -12 -2 -20 0 -17 5 3 5 -1 10 -7 12
-30 10 44 34 171 54 18 3 43 8 55 11 46 10 163 34 196 39 19 3 43 7 52 10 10
3 30 7 45 10 16 2 39 7 53 9 14 3 36 7 50 10 151 28 172 34 165 45 -3 5 1 11
7 13 8 4 7 6 -4 6 -11 1 -15 8 -13 26 1 16 -3 25 -11 25 -8 0 -14 4 -14 10 0
16 -60 42 -117 49 -29 4 -54 7 -56 6z"/>
<path d="M985 1602 c-11 -2 -42 -10 -70 -19 -27 -9 -52 -16 -55 -16 -12 1
-245 -125 -272 -147 -17 -14 -45 -38 -64 -54 -19 -15 -34 -26 -34 -23 0 3 -20
-15 -44 -39 -47 -46 -60 -72 -51 -95 8 -20 60 -22 95 -4 16 8 33 15 36 14 4 0
10 4 13 9 5 9 234 122 289 143 22 9 23 7 20 -28 -2 -21 -6 -40 -10 -43 -4 -3
-8 -33 -10 -68 -1 -34 -6 -62 -10 -62 -5 0 -8 -5 -8 -11 0 -5 5 -7 12 -3 7 5
8 3 2 -7 -9 -14 -10 -24 -13 -77 -1 -23 -10 -33 -53 -55 -99 -52 -153 -82
-165 -93 -6 -6 -25 -17 -42 -24 -17 -7 -31 -17 -31 -23 0 -6 -3 -7 -7 -4 -3 4
-17 0 -30 -8 -13 -9 -43 -26 -66 -39 -132 -72 -182 -101 -185 -108 -2 -5 -7
-6 -12 -3 -5 3 -14 -1 -22 -8 -7 -7 -32 -22 -55 -32 -24 -10 -43 -23 -43 -29
0 -5 -3 -6 -6 -3 -4 4 -19 -2 -34 -13 -15 -11 -29 -18 -31 -16 -2 2 -10 -2
-16 -9 -19 -20 -1 -26 30 -10 15 8 27 11 27 8 0 -3 9 2 21 13 12 10 23 18 25
17 2 -2 6 -2 9 -2 3 1 8 2 13 3 4 1 39 17 77 35 72 34 116 54 125 55 3 1 11 5
18 9 6 5 12 5 12 1 0 -4 9 1 20 11 11 10 20 15 20 11 0 -3 23 5 50 19 28 14
50 22 50 19 0 -4 9 1 21 12 12 10 22 18 23 16 2 -5 70 23 190 77 81 38 84 37
88 -23 4 -73 1 -82 -33 -96 -16 -7 -29 -16 -29 -20 0 -3 -6 -7 -13 -7 -7 0
-41 -16 -76 -36 -34 -21 -66 -37 -70 -37 -5 0 -14 -7 -21 -15 -7 -8 -16 -12
-21 -9 -5 3 -9 0 -9 -6 0 -6 -4 -8 -10 -5 -5 3 -10 1 -10 -5 0 -6 -4 -8 -10
-5 -5 3 -10 2 -10 -3 0 -5 -18 -17 -40 -27 -22 -10 -37 -22 -34 -26 3 -5 22 0
43 11 21 10 41 16 45 13 3 -4 6 0 6 7 0 7 3 11 6 8 3 -4 29 4 57 16 51 22 90
37 94 37 2 0 26 10 55 23 84 37 98 40 98 21 0 -9 4 -14 8 -11 5 3 9 -9 10 -27
2 -35 6 -55 21 -104 5 -18 7 -33 3 -33 -4 0 -2 -4 5 -8 6 -4 13 -21 15 -37 2
-17 9 -36 16 -44 7 -7 10 -21 7 -29 -3 -9 -3 -13 1 -9 4 3 17 -14 29 -38 12
-25 24 -42 28 -38 4 3 7 -1 7 -11 0 -9 4 -14 10 -11 6 3 10 2 10 -3 0 -11 20
-14 85 -14 39 0 80 13 190 61 129 57 326 127 385 137 14 3 39 9 55 14 17 5 45
12 63 15 18 3 63 12 100 19 68 15 245 42 330 52 26 3 58 7 72 9 14 2 52 7 85
10 118 11 195 36 195 62 0 8 5 11 10 8 17 -10 11 39 -8 61 -32 41 -134 73
-212 69 -14 -1 -75 -5 -136 -9 -211 -12 -399 -38 -554 -77 -63 -16 -124 -31
-134 -34 -28 -7 -118 -35 -141 -45 -11 -4 -42 -16 -70 -25 -27 -9 -78 -28
-112 -41 -71 -28 -87 -30 -79 -9 3 8 0 14 -6 12 -6 -1 -12 9 -13 23 -1 14 -6
36 -11 50 -4 14 -9 36 -9 50 -1 14 -5 32 -10 40 -5 8 -10 36 -12 62 -1 27 -7
57 -13 68 -12 23 -14 450 -1 450 5 0 9 11 10 25 1 14 2 36 3 49 1 14 6 22 10
20 4 -3 8 5 8 18 1 13 7 37 14 53 17 40 3 81 -34 100 -27 14 -47 15 -95 7z"/>
<path d="M2300 1504 c-36 -8 -74 -16 -85 -18 -11 -2 -76 -16 -145 -31 -69 -14
-147 -30 -175 -36 -27 -5 -61 -11 -75 -14 -14 -3 -68 -14 -120 -26 -88 -20
-98 -24 -118 -55 -12 -19 -22 -38 -22 -44 0 -5 -4 -10 -10 -10 -5 0 -10 -7
-10 -15 0 -8 -4 -15 -9 -15 -5 0 -14 -13 -21 -30 -7 -16 -16 -30 -21 -30 -4 0
-18 -20 -30 -45 -12 -25 -25 -45 -28 -45 -4 0 -15 -16 -25 -35 -11 -19 -24
-35 -29 -35 -6 0 -7 -3 -4 -7 4 -3 1 -13 -7 -22 -21 -25 -26 -60 -10 -75 8 -8
14 -20 14 -26 0 -6 5 -8 10 -5 6 3 10 0 10 -7 0 -8 19 -22 42 -32 51 -23 172
-17 293 14 44 12 87 23 95 25 45 12 182 45 202 49 51 11 195 54 216 65 12 6
22 9 22 7 0 -3 20 15 45 41 25 25 45 55 45 65 0 11 4 17 8 14 5 -3 9 1 9 9 0
14 -28 14 -77 0 -8 -2 -26 -6 -40 -9 -41 -7 -471 -96 -517 -106 -35 -8 -108
-21 -123 -22 -45 -2 -39 29 8 41 42 10 264 58 302 65 14 2 36 7 50 10 14 3 36
8 50 10 14 3 36 7 50 10 14 3 36 8 50 11 14 3 36 7 50 10 66 13 177 37 190 42
8 4 18 5 23 5 4 -1 7 12 7 29 0 21 4 28 13 23 9 -6 9 -5 0 7 -10 12 -10 18 0
29 10 10 9 11 -3 5 -13 -8 -13 -6 -2 8 15 18 8 38 -11 32 -7 -2 -23 -7 -37 -9
-14 -3 -35 -7 -46 -10 -12 -2 -38 -7 -58 -10 -19 -3 -55 -10 -78 -15 -41 -9
-65 -14 -123 -26 -62 -12 -82 -16 -105 -20 -14 -2 -58 -11 -97 -19 -114 -24
-127 -26 -142 -17 -30 19 17 37 179 69 91 18 179 35 195 38 17 3 50 10 75 16
25 5 58 12 73 15 106 18 192 40 192 50 0 6 3 15 8 19 4 4 7 24 7 45 0 33 -4
38 -31 48 -18 6 -32 11 -33 10 -1 -1 -30 -7 -66 -15z"/>
<path d="M2395 538 c-27 -16 -45 -34 -45 -47 0 -6 -4 -11 -10 -11 -5 0 -10
-14 -10 -31 0 -16 -4 -28 -9 -25 -13 9 -10 -44 6 -81 7 -19 24 -39 38 -45 33
-15 111 -2 128 23 8 10 17 16 20 12 4 -3 7 4 7 16 0 12 4 19 10 16 6 -3 10 3
10 14 0 11 5 23 11 26 6 4 9 23 8 44 -4 51 -57 101 -108 101 -20 0 -45 -6 -56
-12z"/>
<path d="M1213 262 c-13 -2 -23 -8 -23 -13 0 -6 -5 -7 -10 -4 -6 3 -13 -1 -16
-9 -3 -8 -14 -18 -25 -21 -10 -4 -19 -15 -19 -26 0 -11 -4 -17 -10 -14 -6 4
-10 -6 -10 -24 0 -16 -4 -32 -9 -36 -6 -3 -4 -16 4 -32 8 -15 11 -31 8 -37 -3
-6 -3 -8 1 -4 5 4 17 -2 29 -12 53 -50 142 -27 185 48 6 12 12 29 12 37 0 8 4
15 8 15 5 0 9 18 10 40 1 22 -3 40 -8 40 -6 0 -10 7 -10 15 0 25 -66 46 -117
37z"/>
</g>
</svg>
